<svg id="Layer_1" data-name="Layer 1" xmlns="http://www.w3.org/2000/svg" viewBox="0 0 658.56 217.43"><defs><style>.cls-1{fill:#397ef6;}.cls-2{fill:#767676;}</style></defs><path class="cls-1" d="M305.6,271.65a13.31,13.31,0,0,1-18.4.64,16.28,16.28,0,0,0-11.13-4.49,16.48,16.48,0,0,0-16.26,16.69V311h20.33a12.95,12.95,0,1,1,0,25.89H259.81v54.36a13.17,13.17,0,0,1-26.33,0V284.49A42.56,42.56,0,0,1,305,253.25,13.32,13.32,0,0,1,305.6,271.65Z" transform="translate(-233.48 -241.91)"/><path class="cls-1" d="M396.12,311.67v93.52c0,29.75-23.75,54.14-52.64,54.14a51.71,51.71,0,0,1-39.81-18.83A13.29,13.29,0,0,1,305,422.31a12,12,0,0,1,17.54,1.5,27.92,27.92,0,0,0,21,9.84c15.19,0,27.6-12.84,27.6-28.46v-8.77a48.94,48.94,0,0,1-24.39,6.63c-27,0-49-23.54-49-52.64V312.1c0-6.85,5.56-12.84,12.41-12.84s12.41,6,12.41,12.84v38.31c0,14.76,10.92,27,24.19,27,13.48,0,24.39-12.2,24.39-27V311.67a12.52,12.52,0,1,1,25,0Z" transform="translate(-233.48 -241.91)"/><path class="cls-1" d="M511,256V392.14A13.06,13.06,0,0,1,485.57,396a53.43,53.43,0,0,1-30.6,9.42,54.15,54.15,0,0,1,0-108.29,56.06,56.06,0,0,1,30.17,9V256a13,13,0,1,1,25.9,0Zm-27.82,95.23A28.25,28.25,0,1,0,455,379.51,28.23,28.23,0,0,0,483.22,351.26Z" transform="translate(-233.48 -241.91)"/><path class="cls-1" d="M663.41,339.92v52.65a12.57,12.57,0,0,1-12.63,12.84,12.92,12.92,0,0,1-13-12.84V339.28c0-8.35-7.49-14.77-16.27-14.77-9.42,0-16.91,6.42-16.91,14.77v53.29a12.73,12.73,0,1,1-25.46,0V339.28c0-8.35-7.49-14.77-16.69-14.77s-16.7,6.42-16.7,14.77v53.93a12.69,12.69,0,0,1-12.84,12.62A13,13,0,0,1,520,393.21V311.46a13.22,13.22,0,0,1,12.84-13.06,12,12,0,0,1,9.85,5.14,43.7,43.7,0,0,1,19.69-4.71,43.27,43.27,0,0,1,29.53,11.56,41.72,41.72,0,0,1,29.53-11.56c22.9,0,41.95,18.19,41.95,40.45Z" transform="translate(-233.48 -241.91)"/><path class="cls-1" d="M761.41,359H695.5a28.2,28.2,0,0,0,27.18,21.61c6.85,0,16.91-2.78,22.47-8.13a12.86,12.86,0,0,1,18.19.21,12.67,12.67,0,0,1-.21,18.19c-11.77,11.35-28.25,15.2-40.45,15.2a53.72,53.72,0,0,1,0-107.43,46.9,46.9,0,0,1,9.42.85,51.81,51.81,0,0,1,34.66,24.61c3.43,6,7.28,13.91,6.85,21a18,18,0,0,1-1.71,6.2C770.19,355.33,766.55,359,761.41,359Zm-62.27-21.62h45.37c-4.28-8.13-12.2-12.84-21.83-12.84A27.76,27.76,0,0,0,699.14,337.35Z" transform="translate(-233.48 -241.91)"/><path class="cls-2" d="M778,278.35V243.52h11.38q5.68,0,8.53,2.34t2.86,6.94a7.1,7.1,0,0,1-1.38,4.32,9.11,9.11,0,0,1-3.78,2.91,8,8,0,0,1,4.46,3,8.61,8.61,0,0,1,1.64,5.27,9.32,9.32,0,0,1-3,7.37q-3,2.68-8.59,2.68Zm4.59-20h6.94a7.3,7.3,0,0,0,4.82-1.51,5.1,5.1,0,0,0,1.81-4.11,5,5,0,0,0-1.68-4.18,8.23,8.23,0,0,0-5.1-1.31h-6.79Zm0,3.68V274.6h7.58a7.28,7.28,0,0,0,5.06-1.67,5.81,5.81,0,0,0,1.86-4.58q0-6.28-6.84-6.29Z" transform="translate(-233.48 -241.91)"/><path class="cls-2" d="M828.39,262.25h-15.1V274.6h17.54v3.75H808.7V243.52h21.89v3.75h-17.3V258.5h15.1Z" transform="translate(-233.48 -241.91)"/><path class="cls-2" d="M861.29,247.27h-11.2v31.08h-4.57V247.27H834.35v-3.75h26.94Z" transform="translate(-233.48 -241.91)"/><path class="cls-2" d="M884,269.24H869.41l-3.28,9.11h-4.74l13.3-34.83h4L892,278.35h-4.71Zm-13.21-3.76h11.85l-5.94-16.29Z" transform="translate(-233.48 -241.91)"/></svg>