<svg id="Capa_1" fill='#818181' enable-background="new 0 0 512 512" height="512" viewBox="0 0 512 512" width="512" xmlns="http://www.w3.org/2000/svg"><g><g><g><path d="m59.457 268.082h165.905c4.142 0 7.499-3.357 7.499-7.499s-3.358-7.499-7.499-7.499h-165.905c-4.142 0-7.499 3.357-7.499 7.499s3.357 7.499 7.499 7.499z"/><path d="m59.457 313.908h165.905c4.142 0 7.499-3.357 7.499-7.499s-3.358-7.499-7.499-7.499h-165.905c-4.142 0-7.499 3.357-7.499 7.499s3.357 7.499 7.499 7.499z"/><path d="m472.418 88.304h-31.766l-.001-14.791c0-4.141-3.358-7.498-7.5-7.498s-7.499 3.358-7.499 7.5l.01 113.272c0 4.588-3.732 8.321-8.32 8.322-4.589 0-8.322-3.733-8.323-8.322l-.015-163.466c0-4.6 3.72-8.323 8.321-8.323 4.598 0 8.322 3.72 8.322 8.321l.001 14.807c0 4.141 3.358 7.498 7.5 7.498s7.499-3.358 7.498-7.5l-.001-14.806c0-6.23-2.427-12.086-6.831-16.49-4.405-4.404-10.261-6.83-16.49-6.829-12.887 0-23.32 10.43-23.319 23.322v3.436c-24.18 24.049-57.884 29.188-82.223 29.19-16.492.001-58.594.005-74.582.006-9.539.002-17.57 6.494-19.964 15.285l-8.621.001c-12.859.001-24.017 6.853-30.175 17.065h-138.858c-13.721 0-24.883 11.163-24.883 24.884v154.192c0 4.142 3.358 7.499 7.499 7.499s7.499-3.357 7.499-7.499v-154.192c0-5.451 4.434-9.885 9.884-9.885h133.99c-1.818 20.779 14.589 38.319 35.05 38.318l9.543-.001c1.025 2.395 2.5 4.601 4.398 6.498 3.49 3.489 8.006 5.568 12.865 5.978v51.318c0 9.734 7.919 17.653 17.653 17.653h14.097c8.332 0 15.417-5.679 17.23-13.81l12.283-55.078c9.658-.001 14.362-.001 15.099-.001h.015c24.338 0 58.035 5.137 82.214 29.177v3.433c.001 12.858 10.463 23.319 23.322 23.319 12.859-.001 23.319-10.464 23.317-23.322l-.007-83.483h31.764c5.45 0 9.884 4.434 9.884 9.885v230.927h-452.6v-41.674c0-4.142-3.358-7.499-7.499-7.499s-7.499 3.357-7.499 7.499v81.614c0 13.721 11.163 24.884 24.883 24.884h166.267c-2.269 19.755-9.42 38.5-20.939 54.796h-30.421c-18.529 0-33.603 15.074-33.603 33.603 0 8.085 6.578 14.664 14.664 14.664h240.899c8.086 0 14.664-6.579 14.664-14.664 0-18.529-15.074-33.603-33.603-33.603h-30.421c-11.518-16.296-18.669-35.041-20.939-54.796h166.266c13.721 0 24.883-11.163 24.883-24.884 0-23.207 0-257.931 0-270.865.001-13.721-11.162-24.885-24.882-24.885zm-263.796 38.319c-14.339.001-24.108-14.6-18.698-27.836.023-.054.045-.108.067-.162 2.998-7.153 10.104-12.387 18.628-12.387h7.875l.003 40.384zm22.891 7.028-.017-.285-.004-56.7c0-3.15 2.562-5.713 5.712-5.713l56.51-.004.006 68.233-56.51.004c-1.526 0-2.96-.594-4.039-1.673-1.038-1.037-1.613-2.404-1.658-3.862zm38.257 72.342c-.272 1.223-1.338 2.076-2.591 2.076h-14.097c-1.463 0-2.654-1.19-2.654-2.654v-51.232l30.896-.002zm42.037-66.814c-.005 0-.011 0-.016 0h-3.073l-.006-68.233h3.073c32.923-.002 60.982-8.386 82.224-24.395l.01 117.01c-21.242-16.003-49.296-24.382-82.212-24.382zm64.305 357.822h-240.224c.18-10.104 8.455-18.269 18.601-18.269h203.023c10.146 0 18.421 8.166 18.6 18.269zm-66.907-33.268h-106.409c9.986-16.715 16.15-35.34 18.132-54.796h70.145c1.982 19.457 8.146 38.082 18.132 54.796zm173.097-79.68c0 5.451-4.434 9.885-9.884 9.885h-432.836c-5.45 0-9.884-4.434-9.884-9.885v-24.939h452.604z"/></g></g></g></svg>